<svg xmlns="http://www.w3.org/2000/svg" viewBox="0 0 800 600">
<defs>
  <pattern id="grid" width="20" height="20" patternUnits="userSpaceOnUse">
    <path d="M 20 0 L 0 0 0 20" fill="none" stroke="gray" stroke-width="0.5"/>
  </pattern>
</defs>
<rect width="800" height="600" fill="url(#grid)"/>
<!-- Area A -->
<rect x="100" y="80" width="200" height="40" fill="black"/>
<rect x="100" y="160" width="200" height="40" fill="black"/>
<rect x="100" y="240" width="200" height="40" fill="black"/>
<rect x="100" y="320" width="200" height="40" fill="black"/>
<!-- Area B -->
<rect x="500" y="80" width="200" height="40" fill="black"/>
<rect x="500" y="160" width="200" height="40" fill="black"/>
<rect x="500" y="240" width="200" height="40" fill="black"/>
<rect x="500" y="320" width="200" height="40" fill="black"/>
<!-- High tasks -->
<circle cx="120" cy="120" r="8" fill="#FF4081"/>
<text x="130" y="135" font-size="12">P1</text>
<circle cx="240" cy="200" r="8" fill="#FF4081"/>
<text x="250" y="215" font-size="12">P2</text>
<circle cx="540" cy="120" r="8" fill="#FF4081"/>
<text x="550" y="135" font-size="12">P3</text>
<circle cx="640" cy="280" r="8" fill="#FF4081"/>
<text x="650" y="295" font-size="12">P4</text>
<!-- Low tasks -->
<rect x="252" y="72" width="16" height="16" fill="#FFA726"/>
<text x="260" y="70" font-size="12">T1</text>
<rect x="192" y="312" width="16" height="16" fill="#FFA726"/>
<text x="200" y="310" font-size="12">T2</text>
<rect x="572" y="152" width="16" height="16" fill="#FFA726"/>
<text x="580" y="150" font-size="12">T3</text>
<!-- Path -->
<path d="M600 500 L 600 500 L 600 480 L 600 460 L 600 440 L 600 420 L 600 400 L 600 380 L 600 360 L 580 360 L 560 360 L 540 360 L 520 360 L 500 360 L 480 360 L 480 340 L 480 320 L 480 300 L 480 280 L 480 260 L 480 240 L 480 220 L 480 200 L 480 180 L 480 160 L 480 140 L 480 120 L 480 100 L 480 80 L 480 60 L 460 60 L 440 60 L 420 60 L 400 60 L 380 60 L 360 60 L 340 60 L 320 60 L 300 60 L 280 60 L 260 60 L 260 60 L 280 60 L 300 60 L 300 80 L 300 100 L 300 120 L 300 140 L 300 160 L 300 180 L 300 200 L 280 200 L 260 200 L 240 200 L 240 200 L 260 200 L 280 200 L 300 200 L 300 180 L 300 160 L 300 140 L 320 140 L 340 140 L 360 140 L 380 140 L 400 140 L 420 140 L 440 140 L 460 140 L 480 140 L 500 140 L 520 140 L 540 140 L 560 140 L 580 140" stroke="#4CAF50" stroke-width="3" fill="none" stroke-dasharray="5,5"/>
<circle cx="600" cy="500" r="5" fill="#4CAF50"/>
<circle cx="580" cy="140" r="5" fill="#FF4081"/>
<!-- High-equipped robot -->
<g transform="translate(150,500)">
  <circle r="15" fill="#4CAF50"/>
  <line x1="0" y1="0" x2="15" y2="0" stroke="white" stroke-width="3"/>
  <text x="25" y="5" font-size="14" fill="#4CAF50">High-equipped Robot</text>
</g>
<!-- Low-equipped robot -->
<g transform="translate(600,500)">
  <path d="M 0,-15 L 13,-7.5 L 13,7.5 L 0,15 L -13,7.5 L -13,-7.5 Z" fill="#2196F3"/>
  <line x1="0" y1="0" x2="13" y2="0" stroke="white" stroke-width="3"/>
  <text x="25" y="5" font-size="14" fill="#2196F3">Low-equipped Robot</text>
</g>
<!-- Charging station -->
<rect x="350" y="480" width="100" height="60" fill="#FFD700" opacity="0.3"/>
<text x="360" y="515" font-size="16" fill="#B8860B">Charging</text>
<!-- Legend -->
<g transform="translate(50, 570)">
  <circle cx="10" cy="0" r="8" fill="#FF4081"/>
  <text x="25" y="5" font-size="12">High tasks</text>
  <rect x="100" y="-8" width="16" height="16" fill="#FFA726"/>
  <text x="125" y="5" font-size="12">Low tasks</text>
</g>
</svg>